HIERARCHY
ROOT SimulationBone
{
	OFFSET 0.000000 0.000000 0.000000
	CHANNELS 6 Xposition Yposition Zposition Zrotation Yrotation Xrotation 
	JOINT Hips
	{
		OFFSET 0.000000 0.000000 0.000000
		CHANNELS 6 Xposition Yposition Zposition Zrotation Yrotation Xrotation 
		JOINT LeftUpLeg
		{
			OFFSET 0.103461 1.857828 10.548504
			CHANNELS 3 Zrotation Yrotation Xrotation
			JOINT LeftLeg
			{
				OFFSET 43.500008 -0.000031 0.000006
				CHANNELS 3 Zrotation Yrotation Xrotation
				JOINT LeftFoot
				{
					OFFSET 42.372200 0.000019 -0.000010
					CHANNELS 3 Zrotation Yrotation Xrotation
					JOINT LeftToe
					{
						OFFSET 17.299999 -0.000000 0.000002
						CHANNELS 3 Zrotation Yrotation Xrotation
						End Site
						{
							OFFSET 0.000000 0.000000 0.000000
						}
					}
				}
			}
		}
		JOINT RightUpLeg
		{
			OFFSET 0.103457 1.857829 -10.548504
			CHANNELS 3 Zrotation Yrotation Xrotation
			JOINT RightLeg
			{
				OFFSET 43.500046 -0.000019 0.000011
				CHANNELS 3 Zrotation Yrotation Xrotation
				JOINT RightFoot
				{
					OFFSET 42.372261 0.000000 0.000008
					CHANNELS 3 Zrotation Yrotation Xrotation
					JOINT RightToe
					{
						OFFSET 17.299990 -0.000006 0.000008
						CHANNELS 3 Zrotation Yrotation Xrotation
						End Site
						{
							OFFSET 0.000000 0.000000 0.000000
						}
					}
				}
			}
		}
		JOINT Spine
		{
			OFFSET 6.901969 -2.603727 -0.000006
			CHANNELS 3 Zrotation Yrotation Xrotation
			JOINT Spine1
			{
				OFFSET 12.588100 -0.000002 0.000002
				CHANNELS 3 Zrotation Yrotation Xrotation
				JOINT Spine2
				{
					OFFSET 12.343195 0.000004 0.000008
					CHANNELS 3 Zrotation Yrotation Xrotation
					JOINT Neck
					{
						OFFSET 25.832905 -0.000008 -0.000002
						CHANNELS 3 Zrotation Yrotation Xrotation
						JOINT Head
						{
							OFFSET 11.766608 0.000010 -0.000008
							CHANNELS 3 Zrotation Yrotation Xrotation
							End Site
							{
								OFFSET 0.000000 0.000000 0.000000
							}
						}
					}
					JOINT LeftShoulder
					{
						OFFSET 19.745903 -1.480370 6.000106
						CHANNELS 3 Zrotation Yrotation Xrotation
						JOINT LeftArm
						{
							OFFSET 11.284119 -0.000006 -0.000014
							CHANNELS 3 Zrotation Yrotation Xrotation
							JOINT LeftForeArm
							{
								OFFSET 33.000050 0.000004 0.000026
								CHANNELS 3 Zrotation Yrotation Xrotation
								JOINT LeftHand
								{
									OFFSET 25.200020 0.000017 0.000004
									CHANNELS 3 Zrotation Yrotation Xrotation
									End Site
									{
										OFFSET 0.000000 0.000000 0.000000
									}
								}
							}
						}
					}
					JOINT RightShoulder
					{
						OFFSET 19.746099 -1.480375 -6.000082
						CHANNELS 3 Zrotation Yrotation Xrotation
						JOINT RightArm
						{
							OFFSET 11.284140 -0.000015 -0.000008
							CHANNELS 3 Zrotation Yrotation Xrotation
							JOINT RightForeArm
							{
								OFFSET 33.000084 0.000016 0.000002
								CHANNELS 3 Zrotation Yrotation Xrotation
								JOINT RightHand
								{
									OFFSET 25.199783 0.000142 0.000437
									CHANNELS 3 Zrotation Yrotation Xrotation
									End Site
									{
										OFFSET 0.000000 0.000000 0.000000
									}
								}
							}
						}
					}
				}
			}
		}
	}
}
MOTION
Frames: 7
Frame Time: 0.016667
51.813105 0.000000 -478.950807 180.000000 -70.466274 180.000000 -0.196913 90.794113 -1.703222 92.866140 -5.365812 -179.360682 176.500558 7.763097 178.494331 -13.748331 -3.996035 -6.196109 81.532008 5.557890 5.244551 21.454551 0.003099 -0.000000 -174.365741 9.010684 -163.267490 -42.808035 -1.944921 7.530642 76.058827 -0.539151 17.123653 21.454562 -0.003113 -0.000017 7.681561 -1.347723 0.532461 5.339851 -2.718468 1.002801 5.021425 -2.712236 1.019213 6.719998 6.871630 4.172264 -29.002246 -10.678576 10.365931 -168.116896 -77.598409 -13.606506 -23.823876 61.137390 32.082186 -28.580938 -14.888759 1.195858 -3.171359 -36.632551 1.169614 166.431014 73.015804 -12.541020 -14.400935 -58.052740 -30.720848 -39.188991 20.274155 -1.807728 9.142299 0.951797 -85.799005 
51.620688 0.000000 -478.106344 180.000000 -70.994741 180.000000 -0.112572 90.714380 -1.691854 93.184055 -5.328567 -179.300668 177.279032 7.732963 178.772874 -14.039703 -4.127555 -5.946929 82.228927 5.359998 5.303006 21.454552 0.003095 0.000001 -176.170818 9.302349 -164.162996 -47.342752 -2.366122 7.801669 74.243865 -0.540668 16.800341 21.454560 -0.003112 -0.000016 7.771956 -1.369259 0.465620 5.522218 -2.759089 0.865969 5.203757 -2.753683 0.882629 6.696484 6.946811 4.111278 -29.340131 -10.542398 10.286284 -169.366842 -77.780062 -12.331842 -25.542213 60.522422 31.231733 -29.055223 -14.960838 1.209113 -3.327048 -33.989627 1.029227 165.832920 73.057088 -13.152456 -14.430130 -58.145566 -30.812659 -39.127619 20.372728 -1.812544 9.348512 0.592653 -86.375480 
51.421004 0.000000 -477.256357 180.000000 -71.526671 180.000000 -0.024527 90.658440 -1.680887 93.526937 -5.244205 -179.280181 178.161509 7.659104 179.093871 -14.179591 -4.235607 -5.739076 82.857249 5.190271 5.343377 21.454555 0.003088 0.000001 -178.142508 9.497901 -165.318923 -51.907661 -2.654268 8.165604 72.193145 -0.777915 15.884452 21.454560 -0.003110 -0.000016 7.876853 -1.385170 0.405678 5.733505 -2.788668 0.742791 5.415015 -2.784002 0.759630 6.639964 7.017163 4.048628 -29.679155 -10.390703 10.197877 -170.761422 -77.989608 -10.910586 -27.215642 59.814635 30.633483 -29.506515 -15.056390 1.223854 -3.943652 -31.993718 1.393237 165.396978 73.095991 -13.597591 -14.595934 -58.158430 -30.825165 -38.954364 20.455098 -1.813295 9.536894 0.307906 -86.944311 
51.213080 0.000000 -476.399503 180.000000 -72.060975 180.000000 0.059939 90.626177 -1.667990 93.878400 -5.116858 -179.313385 179.131515 7.549553 179.454440 -14.158237 -4.313942 -5.583491 83.403947 5.056425 5.363008 21.454554 0.003087 -0.000000 179.756476 9.627876 -166.601953 -56.337062 -2.839507 8.505392 69.938325 -1.231172 14.305520 21.454563 -0.003110 -0.000015 7.994402 -1.395270 0.354531 5.969937 -2.806910 0.637121 5.651434 -2.802881 0.654075 6.465376 7.055886 3.983601 -29.909705 -10.215218 10.084641 -171.794173 -78.171495 -9.858825 -28.918227 58.999163 30.158868 -29.984568 -15.146671 1.238896 -5.019017 -30.819211 2.567564 165.232444 73.141555 -13.764078 -14.911431 -58.099907 -30.718487 -38.682888 20.478906 -1.807654 9.539095 0.149002 -87.151821 
50.995638 0.000000 -475.534084 180.000000 -72.595307 180.000000 0.129872 90.586166 -1.647404 94.198054 -5.000245 -179.404217 -179.920788 7.457204 179.880231 -14.107116 -4.371700 -5.506161 83.930709 4.968946 5.346404 21.454553 0.003091 -0.000001 177.583839 9.721297 -167.949106 -60.564973 -2.919579 8.587302 68.207894 -1.657190 12.632262 21.454565 -0.003111 -0.000016 8.108877 -1.410358 0.308583 6.200100 -2.835167 0.541620 5.881585 -2.831713 0.558748 6.271494 7.097749 3.926843 -30.129698 -10.056753 9.988313 -172.605231 -78.345488 -9.033502 -30.513787 58.112197 29.874567 -30.521335 -15.249166 1.255864 -6.476238 -30.444973 4.477760 165.146009 73.177782 -13.850874 -15.269493 -57.986357 -30.560926 -38.337909 20.456958 -1.797236 9.492494 0.126303 -87.231801 
50.767626 0.000000 -474.657845 180.000000 -73.126914 180.000000 0.171688 90.505444 -1.612741 94.444826 -4.950504 -179.552165 -179.115275 7.435163 -179.611200 -14.174086 -4.418594 -5.524157 84.506016 4.932830 5.280788 21.454551 0.003095 -0.000001 175.387279 9.815944 -169.328321 -64.519327 -2.905753 8.123878 67.771618 -1.701269 11.417128 21.454559 -0.003110 -0.000020 8.204059 -1.441583 0.263900 6.391650 -2.895499 0.448203 6.073111 -2.892605 0.465691 6.169557 7.178730 3.887050 -30.449303 -9.955896 9.949085 -173.478903 -78.535994 -8.145076 -31.860917 57.196909 29.861701 -31.133156 -15.387455 1.276938 -8.231530 -30.776451 6.906737 164.947779 73.187717 -14.053425 -15.561960 -57.833452 -30.437474 -37.940825 20.409725 -1.783925 9.565627 0.233585 -87.445497 
50.528263 0.000000 -473.767537 180.000000 -73.654109 180.000000 0.166150 90.376190 -1.558795 94.594976 -4.981188 -179.747675 -178.521829 7.491596 -179.070894 -14.431080 -4.453641 -5.604986 85.150875 4.927412 5.177427 21.454551 0.003097 -0.000000 173.156716 9.972797 -170.757434 -68.014278 -2.815576 6.734718 68.944987 -1.079331 10.610444 21.454555 -0.003109 -0.000021 8.275585 -1.490498 0.220831 6.535885 -2.991059 0.357532 6.217312 -2.988713 0.375597 6.137147 7.276862 3.854065 -30.821972 -9.902976 9.944957 -174.518914 -78.728245 -7.087848 -32.940888 56.259641 30.133527 -31.791046 -15.563460 1.301693 -10.117279 -31.635540 9.345997 164.770007 73.178411 -14.235913 -15.793133 -57.643892 -30.395598 -37.488865 20.333128 -1.767323 9.739096 0.433187 -87.573003 
